P3
8 8
255
0 0 0  0 0 0  120 120 120  100 100 100  0 0 0  0 0 0  0 0 0  0 0 0 
0 0 0  0 0 0  140 140 140  160 160 160  160 160 160  140 140 140  0 0 0  0 0 0 
0 0 0  0 0 0  130 130 130  160 160 160  150 150 150  100 100 100  10 10 10  0 0 0 
0 0 0  0 0 0  110 110 110  160 160 160  160 160 160  70 70 70  0 0 0  0 0 0 
0 0 0  0 0 0  0 0 0  40 40 40  70 70 70  160 160 160  70 70 70  0 0 0 
0 0 0  0 0 0  0 0 0  0 0 0  40 40 40  160 160 160  90 90 90  0 0 0 
0 0 0  0 0 0  50 50 50  40 40 40  120 120 120  160 160 160  40 40 40  0 0 0 
0 0 0  0 0 0  90 90 90  160 160 160  160 160 160  100 100 100  0 0 0  0 0 0 
